<svg width="256" height="256" viewBox="0 0 256 256" fill="none" xmlns="http://www.w3.org/2000/svg">
<rect width="256" height="256" fill="#09090B"/>
<path d="M88.0364 150.398L97.0841 146.924L100.477 135.342L99.346 131.868L89.1674 136.501L73.334 129.551L54.1081 123.761L34.8819 126.077L23.5724 135.342L21.3105 150.398L28.0962 170.087L34.8819 183.985L47.3223 193.251L57.501 190.934L71.072 175.878V160.822L66.5486 150.398V164.296L57.501 175.878H42.7985L31.489 164.296L34.8819 146.924L51.8461 138.817L71.072 143.449L88.0364 150.398Z" fill="white"/>
<path d="M171.573 150.398L162.526 146.924L159.133 135.342L160.264 131.868L170.442 136.501L186.275 129.551L205.502 123.761L224.728 126.077L236.037 135.342L238.299 150.398L231.513 170.087L224.728 183.985L212.287 193.251L202.109 190.934L188.537 175.878V160.822L193.061 150.398V164.296L202.109 175.878H216.811L228.12 164.296L224.728 146.924L207.764 138.817L188.537 143.449L171.573 150.398Z" fill="white"/>
<path d="M184.756 107.881L178.16 110.097L177.68 106.388L176.747 100.462L182.237 87.6521L190.304 73.6299L202.662 64.3013L214.112 63.3895L223.389 70.8516L229.879 86.0167L233.305 97.829L231.005 110.097L223.886 114.405L208.062 113.219L200.094 104.502L197.197 95.9564L204.552 104.003L215.919 105.687L224.431 97.5284L224.851 84.5466L213.693 76.3714L199.581 81.0919L190.901 94.4434L184.756 107.881Z" fill="white"/>
<path d="M71.3095 107.881L77.9056 110.097L78.3865 106.388L79.3185 100.462L73.8285 87.6521L65.7614 73.6299L53.4042 64.3013L41.9533 63.3895L32.6764 70.8516L26.1864 86.0167L22.7607 97.829L25.0605 110.097L32.1794 114.405L48.0043 113.219L55.9714 104.502L58.8681 95.9564L51.5138 104.003L40.1467 105.687L31.6344 97.5284L31.2151 84.5466L42.3725 76.3714L56.4847 81.0919L65.1647 94.4434L71.3095 107.881Z" fill="white"/>
<path d="M97.214 178.035L108.601 168.859L106.125 167.771L101.601 158.505L97.214 160.822L86.8986 167.771L77.2839 182.159L74.458 195.567L76.7199 207.149L84.6366 217.572L101.601 225.68L113.581 222.205L121.195 214.485L123.678 206.408L121.957 189.483L119.695 183.972L113.581 180.511L116.303 189.72V202.516L107.751 210.779H97.214L88.7906 202.516L86.4841 189.72L97.214 178.035Z" fill="white"/>
<path d="M163.428 178.035L152.041 168.859L154.518 167.771L159.041 158.505L163.428 160.822L173.743 167.771L183.359 182.159L186.184 195.567L183.922 207.149L176.005 217.572L159.041 225.68L147.061 222.205L139.447 214.485L136.964 206.408L138.685 189.483L140.946 183.972L147.061 180.511L144.339 189.72V202.516L152.891 210.779H163.428L171.851 202.516L174.158 189.72L163.428 178.035Z" fill="white"/>
<path d="M91.9968 60.3211V47.5813L97.6515 44.1068H110.092L129.318 47.5813L148.544 44.1068H160.985L166.64 47.5813V60.3211L179.08 71.9027L172.294 88.1169L175.687 113.597L166.64 122.862L155.33 126.337L153.068 136.76L155.33 148.342L153.068 157.607L148.544 166.872L141.759 170.347H129.318H116.878L110.092 166.872L105.568 157.607L103.306 148.342L105.568 136.76L103.306 126.337L91.9968 122.862L82.9495 113.597L86.3424 88.1169L79.5566 71.9027L91.9968 60.3211Z" fill="white"/>
<path d="M77.8525 53.1124L81.245 61.2196L86.8998 56.587V43.8471L77.8525 53.1124Z" fill="white"/>
<path d="M177.377 53.1124L173.984 61.2196L168.329 56.587V43.8471L177.377 53.1124Z" fill="white"/>
<path d="M90.2949 32.2653L91.4259 41.5307L94.8188 39.2144H101.604L99.3426 32.2653L84.6401 23L90.2949 32.2653Z" fill="white"/>
<path d="M166.069 32.2653L164.938 41.5307L161.546 39.2144H154.76L157.022 32.2653L171.724 23L166.069 32.2653Z" fill="white"/>
</svg>
